<mxfile host="app.diagrams.net" modified="2022-10-18T04:15:20.031Z" agent="5.0 (Macintosh; Intel Mac OS X 10_15_7) AppleWebKit/537.36 (KHTML, like Gecko) Chrome/98.0.4758.102 Safari/537.36" etag="IZega3Z4rhNPuKeR-JKg" version="20.4.0" type="github" pages="2">
  <diagram id="PCNtNmvEHWf9eBmhWWZJ" name="第 1 页">
    <mxGraphModel dx="1426" dy="794" grid="1" gridSize="10" guides="1" tooltips="1" connect="1" arrows="1" fold="1" page="1" pageScale="1" pageWidth="827" pageHeight="1169" math="0" shadow="0">
      <root>
        <mxCell id="0" />
        <mxCell id="1" parent="0" />
      </root>
    </mxGraphModel>
  </diagram>
  <diagram id="mXGftiKUFVaCOCBauY9V" name="第 2 页">
    <mxGraphModel dx="1901" dy="1059" grid="1" gridSize="10" guides="1" tooltips="1" connect="1" arrows="1" fold="1" page="1" pageScale="1" pageWidth="827" pageHeight="1169" math="0" shadow="0">
      <root>
        <mxCell id="0" />
        <mxCell id="1" parent="0" />
        <mxCell id="NpXlEpYdfkLe5rnX-Xdh-29" value="编制列表" style="swimlane;html=1;childLayout=stackLayout;startSize=20;rounded=0;shadow=0;labelBackgroundColor=none;strokeWidth=1;fontFamily=Verdana;fontSize=8;align=center;" vertex="1" parent="1">
          <mxGeometry x="312" y="20" width="830" height="810" as="geometry" />
        </mxCell>
        <mxCell id="NpXlEpYdfkLe5rnX-Xdh-30" value="service" style="swimlane;html=1;startSize=20;" vertex="1" parent="NpXlEpYdfkLe5rnX-Xdh-29">
          <mxGeometry y="20" width="160" height="790" as="geometry" />
        </mxCell>
        <mxCell id="NpXlEpYdfkLe5rnX-Xdh-31" value="&lt;div style=&quot;font-family: Menlo, Monaco, &amp;quot;Courier New&amp;quot;, monospace; font-size: 12px; line-height: 18px;&quot;&gt;&lt;span style=&quot;&quot;&gt;fetchTaskAccount&lt;br&gt;获取编制列表各状态数量&lt;/span&gt;&lt;/div&gt;" style="rounded=1;whiteSpace=wrap;html=1;shadow=0;labelBackgroundColor=none;strokeWidth=1;fontFamily=Verdana;fontSize=8;align=center;fontColor=#000000;" vertex="1" parent="NpXlEpYdfkLe5rnX-Xdh-30">
          <mxGeometry x="10" y="300" width="140" height="65" as="geometry" />
        </mxCell>
        <mxCell id="NpXlEpYdfkLe5rnX-Xdh-33" value="&lt;div style=&quot;font-family: Menlo, Monaco, &amp;quot;Courier New&amp;quot;, monospace; font-size: 12px; line-height: 18px;&quot;&gt;&lt;span style=&quot;&quot;&gt;fetchTaskList&lt;br&gt;获取任务列表&lt;/span&gt;&lt;/div&gt;" style="rounded=1;whiteSpace=wrap;html=1;shadow=0;labelBackgroundColor=none;strokeWidth=1;fontFamily=Verdana;fontSize=8;align=center;fontColor=#000000;" vertex="1" parent="NpXlEpYdfkLe5rnX-Xdh-30">
          <mxGeometry x="20" y="190" width="100" height="60" as="geometry" />
        </mxCell>
        <mxCell id="NpXlEpYdfkLe5rnX-Xdh-101" value="&lt;div style=&quot;font-family: Menlo, Monaco, &amp;quot;Courier New&amp;quot;, monospace; font-size: 12px; line-height: 18px;&quot;&gt;&lt;span style=&quot;&quot;&gt;requestSubmitTask&lt;/span&gt;&lt;/div&gt;" style="rounded=1;whiteSpace=wrap;html=1;shadow=0;labelBackgroundColor=none;strokeWidth=1;fontFamily=Verdana;fontSize=8;align=center;fontColor=#000000;" vertex="1" parent="NpXlEpYdfkLe5rnX-Xdh-30">
          <mxGeometry x="10" y="670" width="140" height="60" as="geometry" />
        </mxCell>
        <mxCell id="NpXlEpYdfkLe5rnX-Xdh-105" value="" style="endArrow=none;html=1;rounded=0;labelBackgroundColor=none;fontSize=10;fontColor=#000000;entryX=0;entryY=0.5;entryDx=0;entryDy=0;" edge="1" parent="NpXlEpYdfkLe5rnX-Xdh-30" target="NpXlEpYdfkLe5rnX-Xdh-101">
          <mxGeometry width="50" height="50" relative="1" as="geometry">
            <mxPoint x="-12" y="530" as="sourcePoint" />
            <mxPoint x="48" y="700" as="targetPoint" />
            <Array as="points">
              <mxPoint x="-12" y="700" />
            </Array>
          </mxGeometry>
        </mxCell>
        <mxCell id="NpXlEpYdfkLe5rnX-Xdh-49" value="state" style="swimlane;html=1;startSize=20;" vertex="1" parent="NpXlEpYdfkLe5rnX-Xdh-29">
          <mxGeometry x="160" y="20" width="160" height="790" as="geometry" />
        </mxCell>
        <mxCell id="NpXlEpYdfkLe5rnX-Xdh-50" value="&lt;div style=&quot;font-family: Menlo, Monaco, &amp;quot;Courier New&amp;quot;, monospace; font-size: 12px; line-height: 18px;&quot;&gt;&lt;span style=&quot;&quot;&gt;taskCount&lt;/span&gt;&lt;/div&gt;" style="rounded=1;whiteSpace=wrap;html=1;shadow=0;labelBackgroundColor=none;strokeWidth=1;fontFamily=Verdana;fontSize=8;align=center;fontColor=#000000;" vertex="1" parent="NpXlEpYdfkLe5rnX-Xdh-49">
          <mxGeometry x="30" y="303" width="100" height="60" as="geometry" />
        </mxCell>
        <mxCell id="NpXlEpYdfkLe5rnX-Xdh-75" value="" style="endArrow=classic;html=1;rounded=0;labelBackgroundColor=none;fontColor=#000000;exitX=1;exitY=0.5;exitDx=0;exitDy=0;" edge="1" parent="NpXlEpYdfkLe5rnX-Xdh-49">
          <mxGeometry width="50" height="50" relative="1" as="geometry">
            <mxPoint x="-40" y="219.5" as="sourcePoint" />
            <mxPoint x="190" y="219.5" as="targetPoint" />
          </mxGeometry>
        </mxCell>
        <mxCell id="NpXlEpYdfkLe5rnX-Xdh-34" style="edgeStyle=orthogonalEdgeStyle;rounded=1;html=1;labelBackgroundColor=none;startArrow=none;startFill=0;startSize=5;endArrow=classicThin;endFill=1;endSize=5;jettySize=auto;orthogonalLoop=1;strokeWidth=1;fontFamily=Verdana;fontSize=8;fontColor=#000000;" edge="1" parent="NpXlEpYdfkLe5rnX-Xdh-29" source="NpXlEpYdfkLe5rnX-Xdh-31" target="NpXlEpYdfkLe5rnX-Xdh-50">
          <mxGeometry relative="1" as="geometry" />
        </mxCell>
        <mxCell id="NpXlEpYdfkLe5rnX-Xdh-51" value="store" style="swimlane;html=1;startSize=20;" vertex="1" parent="NpXlEpYdfkLe5rnX-Xdh-29">
          <mxGeometry x="320" y="20" width="190" height="790" as="geometry" />
        </mxCell>
        <mxCell id="NpXlEpYdfkLe5rnX-Xdh-74" value="saveData" style="rounded=1;whiteSpace=wrap;html=1;shadow=0;labelBackgroundColor=none;strokeWidth=1;fontFamily=Verdana;fontSize=8;align=center;fontColor=#000000;" vertex="1" parent="NpXlEpYdfkLe5rnX-Xdh-51">
          <mxGeometry x="30" y="190" width="100" height="60" as="geometry" />
        </mxCell>
        <mxCell id="NpXlEpYdfkLe5rnX-Xdh-79" value="list: {&lt;br&gt;&lt;span style=&quot;&quot;&gt;	&lt;/span&gt;&lt;span style=&quot;white-space: pre;&quot;&gt;	&lt;/span&gt;dataSource: [],&lt;br&gt;&lt;span style=&quot;&quot;&gt;	&lt;/span&gt;&lt;span style=&quot;white-space: pre;&quot;&gt;	&lt;/span&gt;pagination: {}&lt;br&gt;}，&lt;br&gt;selectKeys，&lt;br&gt;&lt;div style=&quot;&quot;&gt;loading，&lt;br&gt;&lt;div style=&quot;font-family: Menlo, Monaco, &amp;quot;Courier New&amp;quot;, monospace; line-height: 18px;&quot;&gt;&lt;div style=&quot;&quot;&gt;&lt;/div&gt;&lt;div style=&quot;&quot;&gt;      keyword，&lt;/div&gt;&lt;div style=&quot;&quot;&gt;      activeKey，&lt;/div&gt;&lt;/div&gt;&lt;/div&gt;" style="shape=callout;whiteSpace=wrap;html=1;perimeter=calloutPerimeter;labelBackgroundColor=none;strokeColor=default;fontColor=#000000;align=left;size=17;position=0.47;base=20;position2=0.6;" vertex="1" parent="NpXlEpYdfkLe5rnX-Xdh-51">
          <mxGeometry x="30" y="40" width="150" height="147" as="geometry" />
        </mxCell>
        <mxCell id="NpXlEpYdfkLe5rnX-Xdh-88" value="" style="triangle;whiteSpace=wrap;html=1;labelBackgroundColor=#1C0E00;strokeColor=default;fontColor=#000000;fillColor=#000000;direction=north;" vertex="1" parent="NpXlEpYdfkLe5rnX-Xdh-51">
          <mxGeometry x="173" y="320" width="10" height="3" as="geometry" />
        </mxCell>
        <mxCell id="NpXlEpYdfkLe5rnX-Xdh-92" value="" style="endArrow=none;html=1;rounded=0;labelBackgroundColor=none;fontColor=#000000;exitX=0;exitY=0.5;exitDx=0;exitDy=0;" edge="1" parent="NpXlEpYdfkLe5rnX-Xdh-51" source="NpXlEpYdfkLe5rnX-Xdh-86">
          <mxGeometry width="50" height="50" relative="1" as="geometry">
            <mxPoint x="178" y="420" as="sourcePoint" />
            <mxPoint x="178" y="219.66101694915255" as="targetPoint" />
            <Array as="points">
              <mxPoint x="178" y="480" />
            </Array>
          </mxGeometry>
        </mxCell>
        <mxCell id="NpXlEpYdfkLe5rnX-Xdh-56" value="UI&amp;nbsp;" style="swimlane;html=1;startSize=20;fillColor=#FFFFFF;" vertex="1" parent="NpXlEpYdfkLe5rnX-Xdh-29">
          <mxGeometry x="510" y="20" width="160" height="790" as="geometry" />
        </mxCell>
        <mxCell id="NpXlEpYdfkLe5rnX-Xdh-80" value="tab切换" style="rounded=1;whiteSpace=wrap;html=1;shadow=0;labelBackgroundColor=none;strokeWidth=1;fontFamily=Verdana;fontSize=8;align=center;fontColor=#000000;" vertex="1" parent="NpXlEpYdfkLe5rnX-Xdh-56">
          <mxGeometry x="40" y="190" width="100" height="60" as="geometry" />
        </mxCell>
        <mxCell id="NpXlEpYdfkLe5rnX-Xdh-86" value="分页切换" style="rounded=1;whiteSpace=wrap;html=1;shadow=0;labelBackgroundColor=none;strokeWidth=1;fontFamily=Verdana;fontSize=8;align=center;fontColor=#000000;" vertex="1" parent="NpXlEpYdfkLe5rnX-Xdh-56">
          <mxGeometry x="38" y="450" width="100" height="60" as="geometry" />
        </mxCell>
        <mxCell id="NpXlEpYdfkLe5rnX-Xdh-94" value="录入执行数" style="rounded=1;whiteSpace=wrap;html=1;shadow=0;labelBackgroundColor=none;strokeWidth=1;fontFamily=Verdana;fontSize=8;align=center;fontColor=#000000;" vertex="1" parent="NpXlEpYdfkLe5rnX-Xdh-56">
          <mxGeometry x="38" y="570" width="100" height="60" as="geometry" />
        </mxCell>
        <mxCell id="NpXlEpYdfkLe5rnX-Xdh-102" value="提交" style="rounded=1;whiteSpace=wrap;html=1;shadow=0;labelBackgroundColor=none;strokeWidth=1;fontFamily=Verdana;fontSize=8;align=center;fontColor=#000000;" vertex="1" parent="NpXlEpYdfkLe5rnX-Xdh-56">
          <mxGeometry x="38" y="670" width="100" height="60" as="geometry" />
        </mxCell>
        <mxCell id="NpXlEpYdfkLe5rnX-Xdh-65" value="route" style="swimlane;html=1;startSize=20;" vertex="1" parent="NpXlEpYdfkLe5rnX-Xdh-29">
          <mxGeometry x="670" y="20" width="160" height="790" as="geometry" />
        </mxCell>
        <mxCell id="NpXlEpYdfkLe5rnX-Xdh-99" value="跳转编制页" style="rounded=1;whiteSpace=wrap;html=1;shadow=0;labelBackgroundColor=none;strokeWidth=1;fontFamily=Verdana;fontSize=8;align=center;fontColor=#000000;" vertex="1" parent="NpXlEpYdfkLe5rnX-Xdh-65">
          <mxGeometry x="35" y="570" width="100" height="60" as="geometry" />
        </mxCell>
        <mxCell id="NpXlEpYdfkLe5rnX-Xdh-81" value="" style="endArrow=classic;html=1;rounded=0;labelBackgroundColor=none;fontColor=#000000;exitX=0;exitY=0.5;exitDx=0;exitDy=0;entryX=1;entryY=0.5;entryDx=0;entryDy=0;" edge="1" parent="NpXlEpYdfkLe5rnX-Xdh-29" source="NpXlEpYdfkLe5rnX-Xdh-80" target="NpXlEpYdfkLe5rnX-Xdh-74">
          <mxGeometry width="50" height="50" relative="1" as="geometry">
            <mxPoint x="500" y="280" as="sourcePoint" />
            <mxPoint x="550" y="230" as="targetPoint" />
          </mxGeometry>
        </mxCell>
        <mxCell id="NpXlEpYdfkLe5rnX-Xdh-85" value="" style="endArrow=classic;html=1;rounded=0;labelBackgroundColor=none;fontColor=#000000;exitX=0.5;exitY=1;exitDx=0;exitDy=0;entryX=0.5;entryY=1;entryDx=0;entryDy=0;" edge="1" parent="NpXlEpYdfkLe5rnX-Xdh-29" source="NpXlEpYdfkLe5rnX-Xdh-80" target="NpXlEpYdfkLe5rnX-Xdh-31">
          <mxGeometry width="50" height="50" relative="1" as="geometry">
            <mxPoint x="370" y="320" as="sourcePoint" />
            <mxPoint x="420" y="270" as="targetPoint" />
            <Array as="points">
              <mxPoint x="600" y="410" />
              <mxPoint x="80" y="410" />
            </Array>
          </mxGeometry>
        </mxCell>
        <mxCell id="NpXlEpYdfkLe5rnX-Xdh-93" value="" style="endArrow=classic;html=1;rounded=0;labelBackgroundColor=none;fontSize=10;fontColor=#000000;exitX=0.5;exitY=1;exitDx=0;exitDy=0;entryX=0;entryY=0.5;entryDx=0;entryDy=0;" edge="1" parent="NpXlEpYdfkLe5rnX-Xdh-29" source="NpXlEpYdfkLe5rnX-Xdh-86" target="NpXlEpYdfkLe5rnX-Xdh-33">
          <mxGeometry width="50" height="50" relative="1" as="geometry">
            <mxPoint x="558" y="590" as="sourcePoint" />
            <mxPoint x="608" y="540" as="targetPoint" />
            <Array as="points">
              <mxPoint x="598" y="550" />
              <mxPoint x="-12" y="550" />
              <mxPoint x="-12" y="240" />
            </Array>
          </mxGeometry>
        </mxCell>
        <mxCell id="NpXlEpYdfkLe5rnX-Xdh-100" value="" style="endArrow=classic;html=1;rounded=0;labelBackgroundColor=none;fontSize=10;fontColor=#000000;exitX=1;exitY=0.5;exitDx=0;exitDy=0;entryX=0;entryY=0.5;entryDx=0;entryDy=0;" edge="1" parent="NpXlEpYdfkLe5rnX-Xdh-29" source="NpXlEpYdfkLe5rnX-Xdh-94" target="NpXlEpYdfkLe5rnX-Xdh-99">
          <mxGeometry width="50" height="50" relative="1" as="geometry">
            <mxPoint x="488" y="700" as="sourcePoint" />
            <mxPoint x="538" y="650" as="targetPoint" />
          </mxGeometry>
        </mxCell>
        <mxCell id="NpXlEpYdfkLe5rnX-Xdh-103" value="" style="endArrow=classic;html=1;rounded=0;labelBackgroundColor=none;fontSize=10;fontColor=#000000;entryX=1;entryY=0.5;entryDx=0;entryDy=0;" edge="1" parent="NpXlEpYdfkLe5rnX-Xdh-29" source="NpXlEpYdfkLe5rnX-Xdh-102" target="NpXlEpYdfkLe5rnX-Xdh-101">
          <mxGeometry width="50" height="50" relative="1" as="geometry">
            <mxPoint x="308" y="700" as="sourcePoint" />
            <mxPoint x="258" y="750" as="targetPoint" />
          </mxGeometry>
        </mxCell>
        <mxCell id="NpXlEpYdfkLe5rnX-Xdh-82" value="&lt;span style=&quot;font-family: Menlo, Monaco, &amp;quot;Courier New&amp;quot;, monospace; text-align: left;&quot;&gt;&lt;font style=&quot;font-size: 10px;&quot;&gt;activeKey&lt;/font&gt;&lt;/span&gt;" style="text;html=1;align=center;verticalAlign=middle;resizable=0;points=[];autosize=1;fillColor=#FFFFFF;fontColor=#333333;strokeColor=none;" vertex="1" parent="1">
          <mxGeometry x="772" y="229" width="90" height="30" as="geometry" />
        </mxCell>
      </root>
    </mxGraphModel>
  </diagram>
</mxfile>
